<svg width="24" height="24" viewBox="0 0 24 24" fill="none" xmlns="http://www.w3.org/2000/svg">
<path d="M11.6297 0.802838C11.3777 0.886306 11.2734 0.952202 11.0605 1.14989L10.8736 1.32122L10.7085 1.21139C10.3609 0.982954 9.84375 0.952202 9.45702 1.1411C9.22671 1.25532 8.94861 1.5233 8.84867 1.73856C8.78349 1.88353 8.7661 1.89231 8.64009 1.85717C8.56187 1.8396 8.33591 1.82202 8.13168 1.82202C7.70584 1.82642 7.57982 1.87474 7.25826 2.18225C7.05403 2.37555 6.87153 2.73578 6.87153 2.94225C6.87153 3.01254 6.84111 3.03011 6.71944 3.03011C6.5239 3.03011 6.39354 3.15751 6.39354 3.3508C6.39354 3.53092 6.48479 3.61878 6.71944 3.68467C7.0323 3.76814 7.18005 3.93068 7.24088 4.26895C7.27999 4.4886 7.14094 4.80051 6.94974 4.91912C6.7542 5.03773 6.4283 5.03773 6.22841 4.91033C6.03722 4.79172 5.9112 4.51496 5.92424 4.2338C5.92858 4.05808 5.9112 4.00976 5.81126 3.9219C5.66352 3.7945 5.55923 3.7945 5.40714 3.92629C5.2985 4.02294 5.28547 4.05808 5.28547 4.31727V4.60721L5.13773 4.63357C4.40336 4.77415 3.91233 5.5605 4.10788 6.28096C4.16871 6.50061 4.16871 6.52697 4.10353 6.56651C3.74287 6.79934 3.65161 6.87402 3.54732 7.02778C3.3822 7.26939 3.31267 7.49344 3.30833 7.80095C3.30833 8.09529 3.38655 8.36766 3.5256 8.56534L3.61685 8.69713L3.45607 8.83771C3.20404 9.06175 3.04761 9.44395 3.04761 9.82175C3.04761 10.0809 3.06933 10.1776 3.18231 10.4016C3.25618 10.551 3.3822 10.7311 3.46476 10.797L3.61685 10.9244L3.50822 11.0913C3.36482 11.3022 3.30833 11.5131 3.30833 11.8206C3.30833 12.3697 3.6125 12.8134 4.16871 13.0726C4.1774 13.077 4.15133 13.1956 4.10788 13.3362C3.90364 14.0522 4.34253 14.7903 5.09427 14.9792L5.28547 15.0275L5.28981 15.3262C5.29416 15.8051 5.5375 16.2136 5.96335 16.4509C6.14585 16.5475 6.26752 16.5826 6.53259 16.5958C6.81504 16.6134 6.87153 16.6266 6.87153 16.6925C6.87153 16.8594 7.01927 17.1845 7.18439 17.3734C7.56244 17.8083 8.17079 17.9489 8.70092 17.7292C8.74872 17.7073 8.78783 17.7468 8.84432 17.8742C8.94861 18.1026 9.2354 18.3794 9.50047 18.5024C9.79595 18.6386 10.2392 18.6342 10.552 18.498C10.6781 18.4409 10.7997 18.3706 10.8258 18.3399C10.8649 18.2915 10.9127 18.3223 11.0691 18.476C11.1734 18.5859 11.3516 18.7089 11.4559 18.7572C11.6384 18.8363 11.6514 18.8538 11.6514 19.012C11.6514 19.1657 11.634 19.1965 11.4559 19.3107C11.2256 19.4557 11.0648 19.6841 10.9996 19.9565C10.9692 20.0663 10.9562 20.4178 10.9649 20.7956C10.9779 21.415 10.9822 21.4501 11.0822 21.5292C11.2125 21.639 11.4124 21.6346 11.5211 21.5248C11.5949 21.4501 11.6645 21.437 11.9904 21.437H12.3771L12.4032 21.8631C12.4162 22.1003 12.4423 22.3595 12.4597 22.4342L12.4901 22.5791H11.9904C11.5471 22.5791 11.482 22.5704 11.4124 22.4913C11.3081 22.3771 11.0691 22.3771 10.9562 22.4913C10.8432 22.6055 10.8432 22.8427 10.9605 22.9921C11.1343 23.2117 11.2386 23.2381 12.0077 23.2381C12.6335 23.2381 12.7334 23.2293 12.8551 23.1502C13.1375 22.9745 13.181 22.8076 13.0941 22.2145C13.0637 22.0256 13.0419 21.4721 13.0419 20.9845C13.0419 20.4837 13.0202 20.0224 12.9941 19.9257C12.9246 19.6666 12.7465 19.4249 12.5335 19.2975C12.3641 19.2009 12.3467 19.1701 12.3467 19.0208C12.3467 18.8582 12.3597 18.8451 12.5379 18.7616C12.6465 18.7133 12.816 18.5903 12.9203 18.4848L13.1115 18.2959L13.2592 18.397C13.7589 18.7352 14.4498 18.6649 14.8931 18.2212C14.993 18.1246 15.1103 17.9664 15.1538 17.8742C15.2103 17.7468 15.2494 17.7073 15.2972 17.7292C15.6535 17.8742 16.0793 17.861 16.4139 17.6897C16.7833 17.5008 17.1266 17.0176 17.1266 16.6837C17.1266 16.6178 17.1657 16.6046 17.3873 16.6046C18.1173 16.6046 18.6996 16.0423 18.7083 15.3218L18.7126 15.0319L18.956 14.9616C19.6034 14.7815 20.051 14.083 19.9163 13.468C19.8902 13.345 19.8555 13.2 19.8424 13.1517C19.8207 13.077 19.8381 13.0506 19.9293 13.0287C20.1205 12.9803 20.5333 12.5323 20.6159 12.2819C20.7506 11.8821 20.7028 11.4032 20.4942 11.0957L20.3856 10.9332L20.5377 10.8014C20.9462 10.4412 21.0722 9.76464 20.8288 9.24626C20.7593 9.10129 20.6289 8.91678 20.542 8.83771L20.3813 8.69713L20.4725 8.56534C20.6854 8.26662 20.755 7.72627 20.6289 7.36604C20.5073 7.02338 20.3508 6.85206 19.8902 6.56651C19.825 6.52697 19.825 6.50501 19.8902 6.30293C20.1075 5.60004 19.5991 4.77415 18.8517 4.63357L18.7126 4.60721L18.7083 4.31288C18.7039 3.7945 18.4563 3.39913 17.987 3.1619C17.7697 3.05208 17.6698 3.03011 17.4221 3.03011C17.1657 3.03011 17.1266 3.02132 17.1266 2.95104C17.1266 2.63474 16.8007 2.16029 16.44 1.94064C16.2619 1.8352 16.1923 1.82202 15.8664 1.82202C15.6622 1.82202 15.4362 1.8396 15.358 1.85717C15.232 1.89231 15.2146 1.88353 15.1494 1.73856C14.8366 1.07081 13.9023 0.807232 13.2896 1.21139L13.1245 1.32122L12.929 1.1411C12.8203 1.04006 12.6422 0.917058 12.5292 0.868734C12.2815 0.758908 11.86 0.728157 11.6297 0.802838ZM12.3032 1.48815C12.5335 1.60677 12.6509 1.81324 12.6509 2.08121C12.6509 2.34919 12.5509 2.52052 12.3163 2.66549C11.8817 2.93346 11.3472 2.60838 11.3472 2.07682C11.3472 1.70341 11.6384 1.40469 11.9991 1.40469C12.0816 1.40469 12.2207 1.43983 12.3032 1.48815ZM10.2739 1.72977C10.7215 1.91428 10.8171 2.52491 10.4564 2.85C10.1914 3.08283 9.85244 3.08283 9.58738 2.85C9.03117 2.35358 9.59172 1.43983 10.2739 1.72977ZM14.2282 1.72977C14.6801 1.91867 14.7801 2.52052 14.4107 2.85C14.0501 3.17069 13.5417 3.0345 13.3678 2.56884C13.1593 2.0241 13.6937 1.50133 14.2282 1.72977ZM8.51407 2.54688C8.90081 2.7841 8.93557 3.31566 8.59229 3.64074C8.43151 3.7945 8.04043 3.82086 7.8362 3.69346C7.27564 3.33323 7.51464 2.45902 8.17513 2.45902C8.29246 2.45902 8.42717 2.49416 8.51407 2.54688ZM16.1619 2.54688C16.5791 2.80607 16.5791 3.42548 16.1619 3.69346C16.0489 3.76375 15.9664 3.77693 15.7665 3.76375C15.5449 3.75057 15.4971 3.7286 15.3537 3.58803C15.2016 3.42988 15.1929 3.41231 15.1929 3.12236C15.1929 2.88075 15.2103 2.79728 15.2798 2.7226C15.5145 2.45462 15.8882 2.37994 16.1619 2.54688ZM11.4124 3.27173C11.634 3.38155 11.7253 3.40352 12.0034 3.40352C12.2902 3.40352 12.3684 3.38595 12.6074 3.25855L12.8812 3.11797L13.055 3.29369C13.4374 3.67149 13.9892 3.78571 14.4846 3.57924C14.5411 3.55728 14.5802 3.59242 14.6454 3.7286C14.867 4.16351 15.3059 4.43588 15.7839 4.43588H16.075L16.1054 4.59843C16.1532 4.86201 16.327 5.16073 16.54 5.34964C16.7312 5.51657 17.0484 5.66594 17.2222 5.66594C17.2874 5.66594 17.3004 5.70547 17.3004 5.92952C17.3004 6.43472 17.5959 6.93113 18.0087 7.13321C18.1477 7.19911 18.1738 7.22986 18.1521 7.30454C17.9783 7.91956 18.0782 8.38083 18.465 8.75864L18.6388 8.92996L18.5128 9.13204C18.252 9.54938 18.2738 10.182 18.5605 10.5817L18.6431 10.7004L18.5041 10.8146C18.3259 10.9552 18.139 11.3066 18.0826 11.5921C18.0435 11.7986 18.0652 12.0227 18.1477 12.3214C18.1695 12.3917 18.1347 12.4312 17.9739 12.5147C17.5785 12.7256 17.3482 13.1077 17.3047 13.6129L17.2787 13.9424L17.1135 13.9776C16.6964 14.0654 16.2662 14.4564 16.1489 14.8606C16.1141 14.9836 16.0837 15.1022 16.0837 15.1285C16.0837 15.1593 15.9664 15.1769 15.7882 15.1813C15.2972 15.19 14.9278 15.4141 14.6888 15.8402L14.5585 16.073L14.3803 16.0072C13.9545 15.8578 13.407 15.9852 13.068 16.3191L12.8725 16.508L12.6204 16.3718C12.3945 16.2444 12.3336 16.2312 11.9991 16.2312C11.6645 16.2312 11.6036 16.2444 11.3777 16.3718L11.1256 16.508L10.9301 16.3191C10.5912 15.9852 10.0436 15.8578 9.61779 16.0072L9.43964 16.073L9.30927 15.8402C9.07897 15.4229 8.66616 15.1813 8.18817 15.1769C7.91876 15.1769 7.91876 15.1769 7.89269 15.0363C7.80143 14.5267 7.37124 14.0786 6.88456 13.9776L6.71944 13.9424L6.69337 13.6393C6.65426 13.1209 6.41526 12.7256 6.02418 12.5147C5.8634 12.4312 5.82864 12.3917 5.85037 12.3214C5.92424 12.0666 5.94596 11.7723 5.9112 11.579C5.8634 11.3066 5.67221 10.9552 5.49405 10.8146L5.35499 10.7004L5.43756 10.5817C5.72435 10.182 5.74608 9.54938 5.48536 9.13204L5.35934 8.92996L5.53315 8.75864C5.91555 8.38523 6.01549 7.93714 5.85037 7.3265C5.82429 7.22546 5.83733 7.2035 5.98507 7.13321C6.21538 7.02338 6.47175 6.75102 6.58039 6.50501C6.63253 6.39079 6.67598 6.17113 6.68902 5.98223C6.7064 5.72304 6.72378 5.66594 6.78462 5.66594C6.94974 5.66594 7.2713 5.51657 7.45815 5.34964C7.67107 5.16073 7.84489 4.86201 7.89269 4.59843L7.9231 4.43588H8.21424C8.69223 4.43588 9.13111 4.16351 9.35273 3.7286C9.41791 3.59242 9.45702 3.55728 9.51351 3.57924C10.0089 3.78571 10.5868 3.66271 10.9562 3.27612C11.0387 3.18826 11.1169 3.12236 11.13 3.12676C11.143 3.13554 11.269 3.19705 11.4124 3.27173ZM17.7697 3.78571C18.0782 3.97461 18.1564 4.40513 17.9392 4.73022C17.8088 4.92351 17.648 5.00698 17.396 5.00698C17.044 5.00698 16.7355 4.71265 16.7355 4.36999C16.7398 4.16352 16.8876 3.87797 17.0484 3.77693C17.2439 3.65832 17.5698 3.65831 17.7697 3.78571ZM5.69828 5.36721C5.90686 5.51218 6.01114 5.67472 6.03287 5.89437C6.05894 6.1272 5.98073 6.30293 5.78519 6.46986C5.41148 6.79055 4.81182 6.55333 4.72057 6.05252C4.62063 5.51218 5.2594 5.06848 5.69828 5.36721ZM18.8778 5.33206C19.0733 5.41114 19.2428 5.6264 19.2775 5.84166C19.3123 6.05692 19.1732 6.37761 18.982 6.51818C18.8082 6.64558 18.4389 6.64558 18.2694 6.51818C17.887 6.23264 17.8479 5.77137 18.1782 5.45946C18.3737 5.27056 18.6301 5.22663 18.8778 5.33206ZM4.78575 7.15957C4.87266 7.18153 5.00737 7.27379 5.08993 7.35726C5.21594 7.48905 5.23767 7.54616 5.25071 7.76141C5.26374 7.96349 5.25071 8.04696 5.18118 8.16118C4.82921 8.72349 3.96013 8.48627 3.96013 7.82731C3.96013 7.52419 4.15567 7.24304 4.42074 7.15957C4.59021 7.11125 4.61194 7.11125 4.78575 7.15957ZM19.7338 7.24304C20.2813 7.63841 20.0423 8.47748 19.3862 8.47748C18.7952 8.47748 18.5041 7.77899 18.9125 7.34847C19.1472 7.10685 19.4861 7.06292 19.7338 7.24304ZM4.65539 9.23308C5.14207 9.48349 5.13338 10.1644 4.63801 10.406C4.40336 10.5246 4.27734 10.5202 4.04704 10.3972C3.57774 10.1468 3.57774 9.47031 4.04704 9.2199C4.24693 9.11008 4.42074 9.11447 4.65539 9.23308ZM19.9467 9.2243C20.1944 9.3517 20.3117 9.56696 20.29 9.8569C20.2683 10.1337 20.164 10.2918 19.925 10.4104C19.7077 10.5202 19.5904 10.5202 19.3601 10.4148C19.1298 10.3094 18.9864 10.0809 18.9864 9.82175C18.9864 9.29019 19.4818 8.98268 19.9467 9.2243ZM5.08558 11.3505C5.23332 11.5043 5.24202 11.5219 5.24202 11.8118C5.24202 12.0754 5.22898 12.1325 5.13338 12.2335C4.69884 12.7036 3.96013 12.4444 3.96013 11.825C3.96013 11.21 4.65539 10.9156 5.08558 11.3505ZM19.7251 11.2451C20.2857 11.5921 20.0467 12.4751 19.3949 12.4751C18.7691 12.4751 18.4867 11.7547 18.9473 11.3198C19.1037 11.1748 19.1472 11.1572 19.3514 11.1572C19.5035 11.1572 19.6295 11.188 19.7251 11.2451ZM5.69828 13.0814C6.01549 13.2483 6.13716 13.7667 5.92858 14.0479C5.77215 14.2631 5.62441 14.3378 5.38107 14.3378C5.12904 14.3378 4.96826 14.2543 4.82052 14.0435C4.69015 13.859 4.68581 13.4943 4.81182 13.323C5.03778 13.0155 5.38976 12.9188 5.69828 13.0814ZM18.9864 13.1209C19.2862 13.3494 19.3644 13.6525 19.2037 13.9688C19.0081 14.3554 18.5214 14.4696 18.2086 14.2016C17.8088 13.859 17.8957 13.2747 18.3867 13.0375C18.5041 12.9803 18.8647 13.0287 18.9864 13.1209ZM6.88022 14.6541C7.00189 14.6892 7.21481 14.966 7.24523 15.1373C7.31475 15.5063 7.04099 15.8929 6.68033 15.9325C6.43264 15.9632 6.25883 15.8929 6.08936 15.6996C5.92424 15.5063 5.88513 15.2911 5.97638 15.0495C6.11978 14.6717 6.44134 14.5311 6.88022 14.6541ZM17.7567 14.7068C18.0521 14.8781 18.1608 15.3658 17.9609 15.6337C17.4959 16.2707 16.5486 15.8226 16.7703 15.0714C16.8963 14.6541 17.3612 14.4828 17.7567 14.7068ZM8.54884 15.95C8.82694 16.1214 8.91819 16.587 8.727 16.8726C8.37068 17.4129 7.52333 17.1669 7.52333 16.5299C7.52333 15.9544 8.0665 15.6513 8.54884 15.95ZM16.1793 15.9369C16.4617 16.1038 16.566 16.587 16.3748 16.8726C16.0098 17.4261 15.1712 17.1669 15.1712 16.4992C15.1712 15.9632 15.7143 15.6601 16.1793 15.9369ZM10.3478 16.7013C10.5477 16.8418 10.6563 17 10.6781 17.2021C10.7302 17.6106 10.3131 18.0148 9.90893 17.9445C9.55696 17.883 9.30058 17.514 9.36576 17.1625C9.44833 16.71 9.9915 16.4596 10.3478 16.7013ZM14.2977 16.6925C14.4803 16.7847 14.6497 17.0659 14.6497 17.2767C14.6497 17.593 14.3847 17.8962 14.0631 17.9445C13.8067 17.984 13.5286 17.8259 13.4026 17.5711C13.2809 17.3295 13.2766 17.2108 13.3896 16.978C13.5503 16.6398 13.9545 16.5124 14.2977 16.6925ZM12.3032 16.9473C12.6378 17.1142 12.7595 17.5711 12.5553 17.8786C12.3336 18.2037 12.0382 18.3003 11.7296 18.1466C11.0909 17.8347 11.2951 16.8682 11.9991 16.8682C12.0816 16.8682 12.2207 16.9033 12.3032 16.9473ZM12.2641 19.9257C12.3554 20.0224 12.3684 20.0883 12.3858 20.409L12.3988 20.778H11.9991H11.5993L11.6123 20.409C11.6297 20.0883 11.6427 20.0224 11.734 19.9257C11.8122 19.8423 11.8861 19.8115 11.9991 19.8115C12.112 19.8115 12.1859 19.8423 12.2641 19.9257Z" fill="black"/>
</svg>
