<svg width="24" height="24" viewBox="0 0 24 24" fill="none" xmlns="http://www.w3.org/2000/svg">
<g clip-path="url(#clip0_111_262)">
<path d="M21.3913 0H4.95652C3.23039 0 1.82611 1.40433 1.82611 3.13045V20.8696C1.82611 22.5957 3.23044 24 4.95656 24H21.3914C21.8235 24 22.174 23.6497 22.174 23.2174C22.174 22.8839 22.174 1.38966 22.174 0.782625C22.1739 0.350391 21.8235 0 21.3913 0ZM3.39131 3.13045C3.39131 2.26739 4.09345 1.56525 4.95652 1.56525V17.7391C4.38652 17.7391 3.85214 17.893 3.39131 18.1603V3.13045V3.13045ZM20.6087 22.4348H4.95652C4.09345 22.4348 3.39131 21.7327 3.39131 20.8696C3.39131 20.0065 4.09345 19.3044 4.95652 19.3044H20.6087V22.4348V22.4348ZM20.6087 17.7391H6.52172V1.5652H20.6087V17.7391Z" fill="black"/>
<path d="M17.7815 10.6446C14.8029 12.2802 11.4086 9.64518 12.086 6.42182C12.2234 5.76824 11.5286 5.25379 10.9435 5.57488C9.18159 6.54238 8.08701 8.37627 8.08701 10.361C8.08701 13.3817 10.5446 15.8392 13.5653 15.8392C16.1957 15.8392 18.4016 13.978 18.9241 11.4916C19.0613 10.8383 18.3668 10.3234 17.7815 10.6446ZM13.5652 14.274C11.4075 14.274 9.65217 12.5186 9.65217 10.361C9.65217 9.48355 9.95409 8.64669 10.4848 7.97244C10.9 11.027 13.7747 13.1196 16.7399 12.6429C16.0205 13.6383 14.8489 14.274 13.5652 14.274Z" fill="black"/>
<path d="M18.9571 4.85785C18.865 4.57453 18.6202 4.36805 18.3254 4.32525L17.6946 4.23357L17.4126 3.66202C17.2807 3.39488 17.0087 3.2258 16.7107 3.2258C16.4128 3.2258 16.1408 3.39488 16.0089 3.66202L15.7269 4.23357L15.0961 4.32525C14.8013 4.36805 14.5564 4.57453 14.4644 4.85789C14.3723 5.14121 14.4491 5.45222 14.6625 5.66011L15.1188 6.105L15.0112 6.73318C14.9608 7.0268 15.0816 7.32347 15.3225 7.4986C15.5631 7.67335 15.8827 7.69702 16.1467 7.55813L16.7108 7.26155L17.275 7.55817C17.5387 7.69674 17.8582 7.67367 18.0992 7.4986C18.3402 7.32352 18.4609 7.02675 18.4106 6.73318L18.3029 6.105L18.7593 5.66011C18.9724 5.45222 19.0492 5.14121 18.9571 4.85785Z" fill="black"/>
</g>
<defs>
<clipPath id="clip0_111_262">
<rect width="24" height="24" fill="white"/>
</clipPath>
</defs>
</svg>
