<svg width="24" height="24" viewBox="0 0 24 24" fill="none" xmlns="http://www.w3.org/2000/svg">
<path d="M20.3292 12.5661C20.1689 12.3836 20.0804 12.149 20.0804 11.9061C20.0804 11.6632 20.1689 11.4286 20.3292 11.2461L21.6092 9.80611C21.7502 9.64878 21.8378 9.45082 21.8594 9.24062C21.8809 9.03043 21.8353 8.8188 21.7292 8.63611L19.7292 5.17611C19.6241 4.99364 19.4641 4.84899 19.2719 4.7628C19.0798 4.67661 18.8653 4.65327 18.6592 4.69611L16.7792 5.07611C16.54 5.12554 16.2909 5.0857 16.0791 4.96411C15.8672 4.84253 15.7072 4.6476 15.6292 4.41611L15.0192 2.58611C14.9521 2.38749 14.8243 2.21498 14.6538 2.09296C14.4833 1.97093 14.2788 1.90557 14.0692 1.90611H10.0692C9.85111 1.89473 9.63531 1.95504 9.45474 2.07783C9.27417 2.20062 9.13875 2.37913 9.06917 2.58611L8.50917 4.41611C8.43117 4.6476 8.27114 4.84253 8.05928 4.96411C7.84743 5.0857 7.59839 5.12554 7.35917 5.07611L5.42917 4.69611C5.23372 4.6685 5.03447 4.69934 4.85652 4.78475C4.67857 4.87017 4.52987 5.00634 4.42917 5.17611L2.42917 8.63611C2.32033 8.81676 2.27139 9.0272 2.28935 9.23734C2.30731 9.44748 2.39125 9.64655 2.52917 9.80611L3.79917 11.2461C3.95949 11.4286 4.04791 11.6632 4.04791 11.9061C4.04791 12.149 3.95949 12.3836 3.79917 12.5661L2.52917 14.0061C2.39125 14.1657 2.30731 14.3648 2.28935 14.5749C2.27139 14.785 2.32033 14.9955 2.42917 15.1761L4.42917 18.6361C4.53427 18.8186 4.69429 18.9632 4.88642 19.0494C5.07856 19.1356 5.293 19.159 5.49917 19.1161L7.37917 18.7361C7.61839 18.6867 7.86743 18.7265 8.07928 18.8481C8.29114 18.9697 8.45117 19.1646 8.52917 19.3961L9.13917 21.2261C9.20875 21.4331 9.34417 21.6116 9.52474 21.7344C9.70531 21.8572 9.92111 21.9175 10.1392 21.9061H14.1392C14.3488 21.9067 14.5533 21.8413 14.7238 21.7193C14.8943 21.5972 15.0221 21.4247 15.0892 21.2261L15.6992 19.3961C15.7772 19.1646 15.9372 18.9697 16.1491 18.8481C16.3609 18.7265 16.61 18.6867 16.8492 18.7361L18.7292 19.1161C18.9353 19.159 19.1498 19.1356 19.3419 19.0494C19.5341 18.9632 19.6941 18.8186 19.7992 18.6361L21.7992 15.1761C21.9053 14.9934 21.9509 14.7818 21.9294 14.5716C21.9078 14.3614 21.8202 14.1634 21.6792 14.0061L20.3292 12.5661ZM18.8392 13.9061L19.6392 14.8061L18.3592 17.0261L17.1792 16.7861C16.459 16.6389 15.7097 16.7612 15.0738 17.1299C14.4378 17.4986 13.9593 18.088 13.7292 18.7861L13.3492 19.9061H10.7892L10.4292 18.7661C10.199 18.068 9.72055 17.4786 9.08458 17.1099C8.4486 16.7412 7.69939 16.6189 6.97917 16.7661L5.79917 17.0061L4.49917 14.7961L5.29917 13.8961C5.79113 13.3461 6.0631 12.634 6.0631 11.8961C6.0631 11.1582 5.79113 10.4461 5.29917 9.89611L4.49917 8.99611L5.77917 6.79611L6.95917 7.03611C7.67939 7.18334 8.4286 7.061 9.06458 6.69231C9.70055 6.32363 10.179 5.73427 10.4092 5.03611L10.7892 3.90611H13.3492L13.7292 5.04611C13.9593 5.74427 14.4378 6.33363 15.0738 6.70231C15.7097 7.07099 16.459 7.19334 17.1792 7.04611L18.3592 6.80611L19.6392 9.02611L18.8392 9.92612C18.3527 10.4749 18.0841 11.1828 18.0841 11.9161C18.0841 12.6494 18.3527 13.3574 18.8392 13.9061V13.9061ZM12.0692 7.90611C11.278 7.90611 10.5047 8.14071 9.84689 8.58024C9.18909 9.01976 8.6764 9.64448 8.37365 10.3754C8.0709 11.1063 7.99169 11.9106 8.14603 12.6865C8.30037 13.4624 8.68133 14.1751 9.24074 14.7345C9.80015 15.294 10.5129 15.6749 11.2888 15.8293C12.0647 15.9836 12.869 15.9044 13.5999 15.6016C14.3308 15.2989 14.9555 14.7862 15.3951 14.1284C15.8346 13.4706 16.0692 12.6972 16.0692 11.9061C16.0692 10.8452 15.6477 9.82783 14.8976 9.07769C14.1475 8.32754 13.13 7.90611 12.0692 7.90611V7.90611ZM12.0692 13.9061C11.6736 13.9061 11.2869 13.7888 10.958 13.5691C10.6291 13.3493 10.3728 13.0369 10.2214 12.6715C10.07 12.306 10.0304 11.9039 10.1076 11.5159C10.1848 11.128 10.3753 10.7716 10.655 10.4919C10.9347 10.2122 11.291 10.0217 11.679 9.94454C12.067 9.86737 12.4691 9.90698 12.8345 10.0584C13.2 10.2097 13.5123 10.4661 13.7321 10.795C13.9519 11.1239 14.0692 11.5106 14.0692 11.9061C14.0692 12.4365 13.8585 12.9453 13.4834 13.3203C13.1083 13.6954 12.5996 13.9061 12.0692 13.9061Z" fill="black"/>
</svg>
